<svg width="800" height="1200" viewBox="0 0 800 1200" fill="none" xmlns="http://www.w3.org/2000/svg">
  <defs>
    <!-- DNA Strand Gradients - Enhanced Visibility -->
    <linearGradient id="strand1-light" x1="0%" y1="0%" x2="100%" y2="100%">
      <stop offset="0%" style="stop-color:#003d75;stop-opacity:1.0"/>
      <stop offset="50%" style="stop-color:#0078d7;stop-opacity:0.9"/>
      <stop offset="100%" style="stop-color:#40a9ff;stop-opacity:0.7"/>
    </linearGradient>
    
    <linearGradient id="strand2-light" x1="0%" y1="0%" x2="100%" y2="100%">
      <stop offset="0%" style="stop-color:#0078d7;stop-opacity:0.9"/>
      <stop offset="50%" style="stop-color:#40a9ff;stop-opacity:0.8"/>
      <stop offset="100%" style="stop-color:#73d0ff;stop-opacity:0.6"/>
    </linearGradient>
    
    <!-- Dark mode gradients - Enhanced Visibility -->
    <linearGradient id="strand1-dark" x1="0%" y1="0%" x2="100%" y2="100%">
      <stop offset="0%" style="stop-color:#9a9a9a;stop-opacity:0.9"/>
      <stop offset="50%" style="stop-color:#c0c0c0;stop-opacity:0.7"/>
      <stop offset="100%" style="stop-color:#e0e0e0;stop-opacity:0.5"/>
    </linearGradient>
    
    <linearGradient id="strand2-dark" x1="0%" y1="0%" x2="100%" y2="100%">
      <stop offset="0%" style="stop-color:#c0c0c0;stop-opacity:0.8"/>
      <stop offset="50%" style="stop-color:#e0e0e0;stop-opacity:0.6"/>
      <stop offset="100%" style="stop-color:#f8f8f8;stop-opacity:0.4"/>
    </linearGradient>
    
    <!-- Base pair gradients - Enhanced Visibility -->
    <linearGradient id="basepair-light" x1="0%" y1="50%" x2="100%" y2="50%">
      <stop offset="0%" style="stop-color:#0078d7;stop-opacity:0.6"/>
      <stop offset="50%" style="stop-color:#40a9ff;stop-opacity:0.8"/>
      <stop offset="100%" style="stop-color:#0078d7;stop-opacity:0.6"/>
    </linearGradient>
    
    <linearGradient id="basepair-dark" x1="0%" y1="50%" x2="100%" y2="50%">
      <stop offset="0%" style="stop-color:#c0c0c0;stop-opacity:0.5"/>
      <stop offset="50%" style="stop-color:#e0e0e0;stop-opacity:0.7"/>
      <stop offset="100%" style="stop-color:#c0c0c0;stop-opacity:0.5"/>
    </linearGradient>
  </defs>
  
  <!-- DNA Double Helix Structure - Light Mode -->
  <g class="dna-helix-light">
    <!-- Left strand (mathematically calculated helix) -->
    <path d="M200 0 Q250 30 300 60 Q350 90 400 120 Q350 150 300 180 Q250 210 200 240 Q250 270 300 300 Q350 330 400 360 Q350 390 300 420 Q250 450 200 480 Q250 510 300 540 Q350 570 400 600 Q350 630 300 660 Q250 690 200 720 Q250 750 300 780 Q350 810 400 840 Q350 870 300 900 Q250 930 200 960 Q250 990 300 1020 Q350 1050 400 1080 Q350 1110 300 1140 Q250 1170 200 1200" 
          stroke="url(#strand1-light)" 
          stroke-width="4" 
          fill="none" 
          stroke-linecap="round"/>
    
    <!-- Right strand (opposite phase) -->
    <path d="M600 0 Q550 30 500 60 Q450 90 400 120 Q450 150 500 180 Q550 210 600 240 Q550 270 500 300 Q450 330 400 360 Q450 390 500 420 Q550 450 600 480 Q550 510 500 540 Q450 570 400 600 Q450 630 500 660 Q550 690 600 720 Q550 750 500 780 Q450 810 400 840 Q450 870 500 900 Q550 930 600 960 Q550 990 500 1020 Q450 1050 400 1080 Q450 1110 500 1140 Q550 1170 600 1200" 
          stroke="url(#strand2-light)" 
          stroke-width="4" 
          fill="none" 
          stroke-linecap="round"/>
    
    <!-- Base pairs connecting the strands -->
    <g class="base-pairs">
      <line x1="300" y1="60" x2="500" y2="60" stroke="url(#basepair-light)" stroke-width="2" opacity="0.6"/>
      <line x1="400" y1="120" x2="400" y2="120" stroke="url(#basepair-light)" stroke-width="3" opacity="0.8"/>
      <line x1="300" y1="180" x2="500" y2="180" stroke="url(#basepair-light)" stroke-width="2" opacity="0.6"/>
      <line x1="200" y1="240" x2="600" y2="240" stroke="url(#basepair-light)" stroke-width="1.5" opacity="0.4"/>
      <line x1="300" y1="300" x2="500" y2="300" stroke="url(#basepair-light)" stroke-width="2" opacity="0.6"/>
      <line x1="400" y1="360" x2="400" y2="360" stroke="url(#basepair-light)" stroke-width="3" opacity="0.8"/>
      <line x1="300" y1="420" x2="500" y2="420" stroke="url(#basepair-light)" stroke-width="2" opacity="0.6"/>
      <line x1="200" y1="480" x2="600" y2="480" stroke="url(#basepair-light)" stroke-width="1.5" opacity="0.4"/>
      <line x1="300" y1="540" x2="500" y2="540" stroke="url(#basepair-light)" stroke-width="2" opacity="0.6"/>
      <line x1="400" y1="600" x2="400" y2="600" stroke="url(#basepair-light)" stroke-width="3" opacity="0.8"/>
      <line x1="300" y1="660" x2="500" y2="660" stroke="url(#basepair-light)" stroke-width="2" opacity="0.6"/>
      <line x1="200" y1="720" x2="600" y2="720" stroke="url(#basepair-light)" stroke-width="1.5" opacity="0.4"/>
      <line x1="300" y1="780" x2="500" y2="780" stroke="url(#basepair-light)" stroke-width="2" opacity="0.6"/>
      <line x1="400" y1="840" x2="400" y2="840" stroke="url(#basepair-light)" stroke-width="3" opacity="0.8"/>
      <line x1="300" y1="900" x2="500" y2="900" stroke="url(#basepair-light)" stroke-width="2" opacity="0.6"/>
      <line x1="200" y1="960" x2="600" y2="960" stroke="url(#basepair-light)" stroke-width="1.5" opacity="0.4"/>
      <line x1="300" y1="1020" x2="500" y2="1020" stroke="url(#basepair-light)" stroke-width="2" opacity="0.6"/>
      <line x1="400" y1="1080" x2="400" y2="1080" stroke="url(#basepair-light)" stroke-width="3" opacity="0.8"/>
      <line x1="300" y1="1140" x2="500" y2="1140" stroke="url(#basepair-light)" stroke-width="2" opacity="0.6"/>
    </g>
  </g>
  
  <!-- Dark mode DNA structure -->
  <g class="dna-helix-dark" style="display: none;">
    <!-- Left strand -->
    <path d="M200 0 Q250 30 300 60 Q350 90 400 120 Q350 150 300 180 Q250 210 200 240 Q250 270 300 300 Q350 330 400 360 Q350 390 300 420 Q250 450 200 480 Q250 510 300 540 Q350 570 400 600 Q350 630 300 660 Q250 690 200 720 Q250 750 300 780 Q350 810 400 840 Q350 870 300 900 Q250 930 200 960 Q250 990 300 1020 Q350 1050 400 1080 Q350 1110 300 1140 Q250 1170 200 1200" 
          stroke="url(#strand1-dark)" 
          stroke-width="4" 
          fill="none" 
          stroke-linecap="round"/>
    
    <!-- Right strand -->
    <path d="M600 0 Q550 30 500 60 Q450 90 400 120 Q450 150 500 180 Q550 210 600 240 Q550 270 500 300 Q450 330 400 360 Q450 390 500 420 Q550 450 600 480 Q550 510 500 540 Q450 570 400 600 Q450 630 500 660 Q550 690 600 720 Q550 750 500 780 Q450 810 400 840 Q450 870 500 900 Q550 930 600 960 Q550 990 500 1020 Q450 1050 400 1080 Q450 1110 500 1140 Q550 1170 600 1200" 
          stroke="url(#strand2-dark)" 
          stroke-width="4" 
          fill="none" 
          stroke-linecap="round"/>
    
    <!-- Base pairs -->
    <g class="base-pairs">
      <line x1="300" y1="60" x2="500" y2="60" stroke="url(#basepair-dark)" stroke-width="2" opacity="0.5"/>
      <line x1="400" y1="120" x2="400" y2="120" stroke="url(#basepair-dark)" stroke-width="3" opacity="0.6"/>
      <line x1="300" y1="180" x2="500" y2="180" stroke="url(#basepair-dark)" stroke-width="2" opacity="0.5"/>
      <line x1="200" y1="240" x2="600" y2="240" stroke="url(#basepair-dark)" stroke-width="1.5" opacity="0.3"/>
      <line x1="300" y1="300" x2="500" y2="300" stroke="url(#basepair-dark)" stroke-width="2" opacity="0.5"/>
      <line x1="400" y1="360" x2="400" y2="360" stroke="url(#basepair-dark)" stroke-width="3" opacity="0.6"/>
      <line x1="300" y1="420" x2="500" y2="420" stroke="url(#basepair-dark)" stroke-width="2" opacity="0.5"/>
      <line x1="200" y1="480" x2="600" y2="480" stroke="url(#basepair-dark)" stroke-width="1.5" opacity="0.3"/>
      <line x1="300" y1="540" x2="500" y2="540" stroke="url(#basepair-dark)" stroke-width="2" opacity="0.5"/>
      <line x1="400" y1="600" x2="400" y2="600" stroke="url(#basepair-dark)" stroke-width="3" opacity="0.6"/>
      <line x1="300" y1="660" x2="500" y2="660" stroke="url(#basepair-dark)" stroke-width="2" opacity="0.5"/>
      <line x1="200" y1="720" x2="600" y2="720" stroke="url(#basepair-dark)" stroke-width="1.5" opacity="0.3"/>
      <line x1="300" y1="780" x2="500" y2="780" stroke="url(#basepair-dark)" stroke-width="2" opacity="0.5"/>
      <line x1="400" y1="840" x2="400" y2="840" stroke="url(#basepair-dark)" stroke-width="3" opacity="0.6"/>
      <line x1="300" y1="900" x2="500" y2="900" stroke="url(#basepair-dark)" stroke-width="2" opacity="0.5"/>
      <line x1="200" y1="960" x2="600" y2="960" stroke="url(#basepair-dark)" stroke-width="1.5" opacity="0.3"/>
      <line x1="300" y1="1020" x2="500" y2="1020" stroke="url(#basepair-dark)" stroke-width="2" opacity="0.5"/>
      <line x1="400" y1="1080" x2="400" y2="1080" stroke="url(#basepair-dark)" stroke-width="3" opacity="0.6"/>
      <line x1="300" y1="1140" x2="500" y2="1140" stroke="url(#basepair-dark)" stroke-width="2" opacity="0.5"/>
    </g>
  </g>
</svg>