<?xml version="1.0" standalone="no"?><!DOCTYPE svg PUBLIC "-//W3C//DTD SVG 1.1//EN" "http://www.w3.org/Graphics/SVG/1.1/DTD/svg11.dtd"><svg t="1759537061025" class="icon" viewBox="0 0 1024 1024" version="1.1" xmlns="http://www.w3.org/2000/svg" p-id="6312" xmlns:xlink="http://www.w3.org/1999/xlink" width="200" height="200"><path d="M256 704 192 704l0-64 64 0L256 704zM384 640 320 640l0 64 64 0L384 640zM512 640 448 640l0 64 64 0L512 640zM640 640 576 640l0 64 64 0L640 640zM768 640l-64 0 0 64 64 0L768 640zM384 512 320 512l0 64 64 0L384 512zM512 512 448 512l0 64 64 0L512 512zM512 384 448 384l0 64 64 0L512 384zM640 512 576 512l0 64 64 0L640 512z" p-id="6313" fill="#004f94"></path></svg>