<?xml version="1.0" standalone="no"?><!DOCTYPE svg PUBLIC "-//W3C//DTD SVG 1.1//EN" "http://www.w3.org/Graphics/SVG/1.1/DTD/svg11.dtd"><svg t="1753077501213" class="icon" viewBox="0 0 1024 1024" version="1.1" xmlns="http://www.w3.org/2000/svg" p-id="5487" xmlns:xlink="http://www.w3.org/1999/xlink" width="200" height="200"><path d="M894 590.7c-5.6 0.1-11.1 1.5-16 4.2l-0.2-0.2c-129 61.7-282.8 36-384.9-64.2C391 430.3 362.6 277 421.9 146.9c2.1-4.6 3.2-9.5 3.2-14.5 0-9-3.5-17.7-9.9-24.1-6.4-6.4-15-10-24.1-10-5 0-9.9 1.1-14.4 3.2-187.1 67.6-302.5 255.8-278 453.2 24.5 197.4 182.4 351.6 380.4 371.5 198 19.8 383.3-100 446.5-288.6 4.1-10.5 2.8-22.4-3.5-31.7-6.3-9.4-16.8-15.1-28.1-15.2z m-371.2 294C343 883.9 188 758.3 149.9 582.6c-38-175.7 51.2-354.2 214.5-429.3l9.4-4.1-3.7 9.9c-51 141-15.1 298.8 92 403.7 107.1 104.9 265.6 137.7 405.5 83.8 3.4-1.4 6.7-2.5 10-3.9-1.3 3.2-2.6 6.5-4 9.7-59.7 140.7-197.8 232.2-350.8 232.3z m0 0" p-id="5488" fill="#ffffff"></path></svg>