<?xml version="1.0" standalone="no"?><!DOCTYPE svg PUBLIC "-//W3C//DTD SVG 1.1//EN" "http://www.w3.org/Graphics/SVG/1.1/DTD/svg11.dtd"><svg t="1752861804597" class="icon" viewBox="0 0 1024 1024" version="1.1" xmlns="http://www.w3.org/2000/svg" p-id="8545" xmlns:xlink="http://www.w3.org/1999/xlink" width="200" height="200"><path d="M530.968381 872.399238c17.554286 0 31.792762 14.238476 31.792762 31.792762v63.634286a31.792762 31.792762 0 1 1-63.585524 0v-63.634286c0-17.554286 14.238476-31.792762 31.792762-31.792762z m-254.829714-105.569524a31.792762 31.792762 0 0 1 0 45.007238l-45.007238 44.958477a31.792762 31.792762 0 0 1-44.958477-44.958477l44.958477-44.958476a31.792762 31.792762 0 0 1 44.958476 0z m554.617904 0l45.007239 45.007238a31.792762 31.792762 0 0 1-44.958477 44.958477l-45.007238-44.958477a31.792762 31.792762 0 0 1 44.958476-44.958476zM531.017143 215.186286a296.813714 296.813714 0 1 1 0 593.627428 296.813714 296.813714 0 0 1 0-593.627428z m0 63.585524a233.22819 233.22819 0 1 0 0 466.45638 233.22819 233.22819 0 0 0 0-466.45638z m-392.240762 201.386666a31.792762 31.792762 0 1 1 0 63.634286H75.142095a31.792762 31.792762 0 1 1 0-63.585524h63.585524z m848.067048 0a31.792762 31.792762 0 0 1 0 63.634286h-63.634286a31.792762 31.792762 0 1 1 0-63.585524h63.634286zM231.131429 167.253333l44.958476 44.958477a31.792762 31.792762 0 1 1-44.958476 44.958476l-44.958477-44.958476a31.792762 31.792762 0 0 1 44.958477-44.958477z m644.632381 0a31.792762 31.792762 0 0 1 0 44.958477l-44.958477 44.958476a31.792762 31.792762 0 1 1-45.007238-44.958476l44.958476-44.958477a31.792762 31.792762 0 0 1 45.007239 0zM530.968381 24.380952c17.554286 0 31.792762 14.238476 31.792762 31.792762v63.634286a31.792762 31.792762 0 1 1-63.585524 0V56.173714c0-17.554286 14.238476-31.792762 31.792762-31.792762z" fill="#333333" p-id="8546"></path></svg>