<?xml version="1.0" standalone="no"?><!DOCTYPE svg PUBLIC "-//W3C//DTD SVG 1.1//EN" "http://www.w3.org/Graphics/SVG/1.1/DTD/svg11.dtd"><svg t="1752859099131" class="icon" viewBox="0 0 1024 1024" version="1.1" xmlns="http://www.w3.org/2000/svg" p-id="5823" xmlns:xlink="http://www.w3.org/1999/xlink" width="200" height="200"><path d="M222.208 121.344C339.456 209.92 465.92 389.12 512 484.864v253.952c0-5.632-2.048 0.512-6.656 13.824-24.064 71.168-118.784 349.184-334.336 126.976-113.664-117.248-60.928-233.984 145.92-269.312-118.272 19.968-251.392-13.312-288.256-144.384C17.92 428.032 0 196.096 0 164.864c0.512-156.672 137.728-107.52 222.208-43.52z m579.584 0C684.544 209.92 558.08 389.12 512 484.864v253.952c0-5.632 2.048 0.512 6.656 13.824 24.064 71.168 118.784 349.184 334.336 126.976 113.664-117.248 60.928-233.984-145.92-269.312 118.272 19.968 251.392-13.312 288.256-144.384 10.752-37.888 28.672-269.824 28.672-301.056-0.512-156.672-137.216-107.52-222.208-43.52z" p-id="5824"></path></svg>