<?xml version="1.0" standalone="no"?><!DOCTYPE svg PUBLIC "-//W3C//DTD SVG 1.1//EN" "http://www.w3.org/Graphics/SVG/1.1/DTD/svg11.dtd"><svg t="1753076621679" class="icon" viewBox="0 0 1160 1024" version="1.1" xmlns="http://www.w3.org/2000/svg" p-id="5317" xmlns:xlink="http://www.w3.org/1999/xlink" width="226.5625" height="200"><path d="M251.648511 68.806259C384.748072 168.731082 527.903681 371.337964 580.471058 480.059784c52.567377-108.719776 195.722986-311.328703 328.822547-411.255568C1005.330906-3.292743 1160.942116-59.081325 1160.942116 118.438579c0 35.453701-20.326707 297.824575-32.248847 340.423792-41.440319 148.087569-192.444551 185.859066-326.770459 162.997908C1036.717222 661.818762 1096.444423 794.182515 967.451082 926.546267c-244.983313 251.384846-352.108838-63.073086-379.558579-143.648191-5.032112-14.771353-7.386699-21.68182-7.421445-15.805573-0.034747-5.876248-2.389333 1.03422-7.421445 15.805573-27.449741 80.575106-134.575265 395.033038-379.558579 143.648191-128.993341-132.363752-69.268184-264.727505 165.528271-304.688031-134.325908 22.861158-285.33014-14.910339-326.770459-162.997909C20.326707 416.26111 0 153.888192 0 118.436535 0-59.081325 155.613253-3.294786 251.648511 68.806259z" fill="#dbdbdb" p-id="5318"></path></svg>